<svg xmlns="http://www.w3.org/2000/svg" viewBox="0 0 218.13 285.86"><defs><style>.cls-1{fill:#1d1d1b;}.cls-2{fill:#ccc;}</style></defs><title>Diagrama</title><g id="Layer_2" data-name="Layer 2"><g id="Layer_1-2" data-name="Layer 1"><path class="cls-1" d="M197.6,179.82a28,28,0,0,0,15.1-11.55A32.17,32.17,0,0,0,218.13,150,38.74,38.74,0,0,0,213,131.67a47.45,47.45,0,0,0-12.48-14.38,63,63,0,0,0-16.69-9.11,92,92,0,0,0-18.41-4.65c-3.13-.48-6.27-.84-9.41-1.11-1.58-.14-3.15-.25-4.72-.35l-4.52-.24-1.63-.07,1-2,.48-1,.24-.5L147,98a2.88,2.88,0,0,1,.47-.1l.64-.1H147c-3.95,1.44-7.82,3-11.7,4.45,3.79,1.73,7.57,3.45,11.26,5.23l1,.09-.61-.16c-.17,0-.51-.11-.44-.15l-.09-.26-.19-.52-.39-1-.78-2.08,1.62.07,4.5.24c1.56.1,3.12.21,4.68.35,3.12.27,6.22.62,9.31,1.1a90.32,90.32,0,0,1,18.09,4.56,61.37,61.37,0,0,1,16.28,8.89,45.83,45.83,0,0,1,12.07,13.89,37.19,37.19,0,0,1,4.92,17.6,30.68,30.68,0,0,1-5.17,17.35,26.47,26.47,0,0,1-14.23,10.91Z"/><path class="cls-1" d="M42.26,211.18q8.58,4.48,17,9.2,4.22,2.37,8.41,4.79l5.54,3.24-1.78,1.32-.89.66-.45.33-.22.17a1.59,1.59,0,0,1-.38.07l.25.11q6.15.8,12.31,1.72-3.64-5.06-7.39-10.08l-.22-.17a1.23,1.23,0,0,1,.12.37v.27l-.08.56-.14,1.1-.29,2.2-5.56-3.25q-4.2-2.43-8.43-4.79Q51.6,214.26,43,209.77Z"/><path class="cls-1" d="M83.79,130.23,42.35,148.68v-4.16c0-.1.16-.26.23-.39l-.31.18-8.52,9.1,12.46-.24.34-.11c-.14,0-.36,0-.44-.08l-.2-.19-.41-.38-.81-.76L43,150.13l41.45-18.45Z"/><polygon class="cls-1" points="95.34 51.27 95.34 63.96 95.34 65.61 91.46 63.96 91.24 63.86 91.28 63.96 96.13 75.44 100.97 63.96 101.01 63.86 100.8 63.96 96.92 65.61 96.92 63.96 96.92 51.27 95.34 51.27"/><path class="cls-2" d="M123,159h69.36a1.58,1.58,0,0,1,1.58,1.58h0v44.14a1.58,1.58,0,0,1-1.58,1.58H121.9a1.58,1.58,0,0,1-1.58-1.58h0V161.67a2.63,2.63,0,0,1,2.59-2.67Z"/><path class="cls-2" d="M2.63,159H72a1.58,1.58,0,0,1,1.58,1.58h0v44.14A1.58,1.58,0,0,1,72,206.33H1.58A1.58,1.58,0,0,1,0,204.75H0V161.67A2.63,2.63,0,0,1,2.59,159Z"/><path class="cls-2" d="M62.79,238.56h69.36a1.58,1.58,0,0,1,1.58,1.58h0v44.14a1.58,1.58,0,0,1-1.58,1.58H61.74a1.58,1.58,0,0,1-1.58-1.58V241.19a2.63,2.63,0,0,1,2.63-2.63Z"/><path class="cls-2" d="M62.79,79.52h69.36a1.58,1.58,0,0,1,1.58,1.58h0v44.14a1.58,1.58,0,0,1-1.58,1.58H61.74a1.58,1.58,0,0,1-1.58-1.58h0V82.15a2.63,2.63,0,0,1,2.63-2.63Z"/><path class="cls-2" d="M62.79,0h69.36a1.58,1.58,0,0,1,1.58,1.58h0V45.71a1.58,1.58,0,0,1-1.58,1.58H61.74a1.58,1.58,0,0,1-1.58-1.58h0V2.63A2.63,2.63,0,0,1,62.79,0Z"/><path class="cls-1" d="M109.55,131.56l41.36,18.64-1.7,1.52-.81.75-.41.38-.2.19c-.08.08-.3.08-.44.08l.34.11,12.46.3-8.48-9.14-.31-.18c.07.13.23.29.23.39v4.16l-41.36-18.65Z"/></g></g></svg>